<mxfile host="app.diagrams.net" modified="2020-10-20T11:20:33.278Z" agent="5.0 (Windows NT 10.0; Win64; x64) AppleWebKit/537.36 (KHTML, like Gecko) Chrome/86.0.4240.80 Safari/537.36 Edg/86.0.622.43" etag="aHFSdQ4dyUr-ZuonORbR" version="13.8.0" type="github">
  <diagram id="C5RBs43oDa-KdzZeNtuy" name="Page-1">
    <mxGraphModel dx="1422" dy="794" grid="1" gridSize="10" guides="1" tooltips="1" connect="1" arrows="1" fold="1" page="1" pageScale="1" pageWidth="1169" pageHeight="827" math="0" shadow="0">
      <root>
        <mxCell id="WIyWlLk6GJQsqaUBKTNV-0" />
        <mxCell id="WIyWlLk6GJQsqaUBKTNV-1" parent="WIyWlLk6GJQsqaUBKTNV-0" />
        <mxCell id="F-60TwZCfAOCNFxz5m5Q-0" style="edgeStyle=orthogonalEdgeStyle;rounded=0;orthogonalLoop=1;jettySize=auto;html=1;exitX=1;exitY=0.5;exitDx=0;exitDy=0;fontFamily=Times New Roman;fontSize=12;" edge="1" parent="WIyWlLk6GJQsqaUBKTNV-1" source="F-60TwZCfAOCNFxz5m5Q-1" target="F-60TwZCfAOCNFxz5m5Q-3">
          <mxGeometry relative="1" as="geometry" />
        </mxCell>
        <mxCell id="F-60TwZCfAOCNFxz5m5Q-1" value="&lt;div style=&quot;resize: none ; outline: 0px ; font-size: 15px ; font-weight: 700&quot;&gt;USGS Landsat&amp;nbsp;&lt;/div&gt;&lt;div style=&quot;resize: none ; outline: 0px ; font-size: 15px ; font-weight: 700&quot;&gt;Surface Reflectance data&lt;/div&gt;&lt;div style=&quot;resize: none ; outline: 0px ; font-size: 15px ; font-weight: 700&quot;&gt;&lt;span style=&quot;font-size: inherit&quot;&gt;(Landsat 5, 7, 8&lt;/span&gt;&lt;span style=&quot;font-size: inherit&quot;&gt;)&lt;/span&gt;&lt;/div&gt;" style="shape=parallelogram;html=1;strokeWidth=2;perimeter=parallelogramPerimeter;whiteSpace=wrap;rounded=1;arcSize=12;size=0.23;fontFamily=Times New Roman;fontSize=12;fillColor=#f8cecc;strokeColor=#b85450;" vertex="1" parent="WIyWlLk6GJQsqaUBKTNV-1">
          <mxGeometry x="20" y="25" width="240" height="60" as="geometry" />
        </mxCell>
        <mxCell id="F-60TwZCfAOCNFxz5m5Q-2" value="" style="edgeStyle=orthogonalEdgeStyle;rounded=0;orthogonalLoop=1;jettySize=auto;html=1;fontFamily=Times New Roman;fontSize=12;entryX=0;entryY=0.5;entryDx=0;entryDy=0;" edge="1" parent="WIyWlLk6GJQsqaUBKTNV-1" source="F-60TwZCfAOCNFxz5m5Q-3" target="F-60TwZCfAOCNFxz5m5Q-47">
          <mxGeometry relative="1" as="geometry" />
        </mxCell>
        <mxCell id="F-60TwZCfAOCNFxz5m5Q-3" value="&lt;div style=&quot;resize: none ; outline: 0px ; font-size: 15px&quot;&gt;Data filtering&lt;/div&gt;" style="rounded=1;whiteSpace=wrap;html=1;absoluteArcSize=1;arcSize=14;strokeWidth=2;fontFamily=Times New Roman;fontSize=12;fontStyle=1;fillColor=#dae8fc;strokeColor=#6c8ebf;" vertex="1" parent="WIyWlLk6GJQsqaUBKTNV-1">
          <mxGeometry x="272" y="25" width="120" height="60" as="geometry" />
        </mxCell>
        <mxCell id="F-60TwZCfAOCNFxz5m5Q-56" style="edgeStyle=orthogonalEdgeStyle;rounded=0;orthogonalLoop=1;jettySize=auto;html=1;exitX=0.5;exitY=1;exitDx=0;exitDy=0;exitPerimeter=0;entryX=0.5;entryY=0;entryDx=0;entryDy=0;" edge="1" parent="WIyWlLk6GJQsqaUBKTNV-1" source="F-60TwZCfAOCNFxz5m5Q-9" target="F-60TwZCfAOCNFxz5m5Q-54">
          <mxGeometry relative="1" as="geometry" />
        </mxCell>
        <mxCell id="F-60TwZCfAOCNFxz5m5Q-9" value="&lt;span style=&quot;font-size: 15px ; font-weight: 700&quot;&gt;&amp;nbsp; Feature sets&lt;/span&gt;" style="strokeWidth=2;html=1;shape=mxgraph.flowchart.direct_data;whiteSpace=wrap;fontFamily=Times New Roman;fontSize=12;align=left;fillColor=#fff2cc;strokeColor=#d6b656;" vertex="1" parent="WIyWlLk6GJQsqaUBKTNV-1">
          <mxGeometry x="760" y="25" width="120" height="60" as="geometry" />
        </mxCell>
        <mxCell id="F-60TwZCfAOCNFxz5m5Q-49" style="edgeStyle=orthogonalEdgeStyle;rounded=0;orthogonalLoop=1;jettySize=auto;html=1;entryX=0;entryY=0.5;entryDx=0;entryDy=0;" edge="1" parent="WIyWlLk6GJQsqaUBKTNV-1" source="F-60TwZCfAOCNFxz5m5Q-47" target="F-60TwZCfAOCNFxz5m5Q-48">
          <mxGeometry relative="1" as="geometry" />
        </mxCell>
        <mxCell id="F-60TwZCfAOCNFxz5m5Q-47" value="&lt;div style=&quot;resize: none ; outline: 0px ; font-size: 15px&quot;&gt;Gap filling&lt;/div&gt;" style="rounded=1;whiteSpace=wrap;html=1;absoluteArcSize=1;arcSize=14;strokeWidth=2;fontFamily=Times New Roman;fontSize=12;fontStyle=1;fillColor=#dae8fc;strokeColor=#6c8ebf;" vertex="1" parent="WIyWlLk6GJQsqaUBKTNV-1">
          <mxGeometry x="435" y="25" width="120" height="60" as="geometry" />
        </mxCell>
        <mxCell id="F-60TwZCfAOCNFxz5m5Q-52" style="edgeStyle=orthogonalEdgeStyle;rounded=0;orthogonalLoop=1;jettySize=auto;html=1;exitX=1;exitY=0.5;exitDx=0;exitDy=0;entryX=0;entryY=0.5;entryDx=0;entryDy=0;entryPerimeter=0;" edge="1" parent="WIyWlLk6GJQsqaUBKTNV-1" source="F-60TwZCfAOCNFxz5m5Q-48" target="F-60TwZCfAOCNFxz5m5Q-9">
          <mxGeometry relative="1" as="geometry" />
        </mxCell>
        <mxCell id="F-60TwZCfAOCNFxz5m5Q-48" value="&lt;div style=&quot;resize: none ; outline: 0px ; font-size: 15px&quot;&gt;Annual map compositing&lt;/div&gt;" style="rounded=1;whiteSpace=wrap;html=1;absoluteArcSize=1;arcSize=14;strokeWidth=2;fontFamily=Times New Roman;fontSize=12;fontStyle=1;fillColor=#dae8fc;strokeColor=#6c8ebf;" vertex="1" parent="WIyWlLk6GJQsqaUBKTNV-1">
          <mxGeometry x="597" y="25" width="120" height="60" as="geometry" />
        </mxCell>
        <mxCell id="F-60TwZCfAOCNFxz5m5Q-57" style="edgeStyle=orthogonalEdgeStyle;rounded=0;orthogonalLoop=1;jettySize=auto;html=1;exitX=0;exitY=0.5;exitDx=0;exitDy=0;entryX=1;entryY=0.5;entryDx=0;entryDy=0;entryPerimeter=0;" edge="1" parent="WIyWlLk6GJQsqaUBKTNV-1" source="F-60TwZCfAOCNFxz5m5Q-50" target="F-60TwZCfAOCNFxz5m5Q-9">
          <mxGeometry relative="1" as="geometry" />
        </mxCell>
        <mxCell id="F-60TwZCfAOCNFxz5m5Q-50" value="&lt;div style=&quot;resize: none ; outline: 0px ; font-size: 15px ; font-weight: 700&quot;&gt;&lt;span style=&quot;background-color: rgba(255 , 255 , 255 , 0.01)&quot;&gt;SRTM&lt;/span&gt;&lt;/div&gt;&lt;div style=&quot;resize: none ; outline: 0px ; font-size: 15px ; font-weight: 700&quot;&gt;&lt;span style=&quot;background-color: rgba(255 , 255 , 255 , 0.01)&quot;&gt;Digital Elevation Data&amp;nbsp;&lt;/span&gt;&lt;/div&gt;&lt;div style=&quot;resize: none ; outline: 0px ; font-size: 15px ; font-weight: 700&quot;&gt;&lt;span style=&quot;background-color: rgba(255 , 255 , 255 , 0.01)&quot;&gt;30m&amp;nbsp;&lt;/span&gt;&lt;br&gt;&lt;/div&gt;" style="shape=parallelogram;html=1;strokeWidth=2;perimeter=parallelogramPerimeter;whiteSpace=wrap;rounded=1;arcSize=12;size=0.23;fontFamily=Times New Roman;fontSize=12;fillColor=#f8cecc;strokeColor=#b85450;" vertex="1" parent="WIyWlLk6GJQsqaUBKTNV-1">
          <mxGeometry x="892" y="25" width="240" height="60" as="geometry" />
        </mxCell>
        <mxCell id="F-60TwZCfAOCNFxz5m5Q-60" style="edgeStyle=orthogonalEdgeStyle;rounded=0;orthogonalLoop=1;jettySize=auto;html=1;" edge="1" parent="WIyWlLk6GJQsqaUBKTNV-1" source="F-60TwZCfAOCNFxz5m5Q-53" target="F-60TwZCfAOCNFxz5m5Q-54">
          <mxGeometry relative="1" as="geometry" />
        </mxCell>
        <mxCell id="F-60TwZCfAOCNFxz5m5Q-53" value="&lt;span style=&quot;font-size: 15px ; font-weight: 700 ; text-align: center ; background-color: rgba(255 , 255 , 255 , 0.01)&quot;&gt;&amp;nbsp; &amp;nbsp; &amp;nbsp;Reference&lt;/span&gt;&lt;div style=&quot;resize: none ; outline: 0px ; font-size: 15px ; font-weight: 700 ; text-align: center&quot;&gt;&amp;nbsp; &amp;nbsp; &amp;nbsp; samples&lt;/div&gt;" style="strokeWidth=2;html=1;shape=mxgraph.flowchart.direct_data;whiteSpace=wrap;fontFamily=Times New Roman;fontSize=12;align=left;fillColor=#fff2cc;strokeColor=#d6b656;" vertex="1" parent="WIyWlLk6GJQsqaUBKTNV-1">
          <mxGeometry x="952" y="109" width="120" height="60" as="geometry" />
        </mxCell>
        <mxCell id="F-60TwZCfAOCNFxz5m5Q-61" style="edgeStyle=orthogonalEdgeStyle;rounded=0;orthogonalLoop=1;jettySize=auto;html=1;exitX=0;exitY=0.5;exitDx=0;exitDy=0;entryX=1;entryY=0.5;entryDx=0;entryDy=0;entryPerimeter=0;" edge="1" parent="WIyWlLk6GJQsqaUBKTNV-1" source="F-60TwZCfAOCNFxz5m5Q-54" target="F-60TwZCfAOCNFxz5m5Q-55">
          <mxGeometry relative="1" as="geometry" />
        </mxCell>
        <mxCell id="F-60TwZCfAOCNFxz5m5Q-54" value="&lt;div style=&quot;resize: none ; outline: 0px ; font-size: 15px&quot;&gt;CART&lt;/div&gt;&lt;div style=&quot;resize: none ; outline: 0px ; font-size: 15px&quot;&gt;(GEE)&lt;/div&gt;" style="rounded=1;whiteSpace=wrap;html=1;absoluteArcSize=1;arcSize=14;strokeWidth=2;fontFamily=Times New Roman;fontSize=12;fontStyle=1;fillColor=#dae8fc;strokeColor=#6c8ebf;" vertex="1" parent="WIyWlLk6GJQsqaUBKTNV-1">
          <mxGeometry x="760" y="109" width="120" height="60" as="geometry" />
        </mxCell>
        <mxCell id="F-60TwZCfAOCNFxz5m5Q-63" style="edgeStyle=orthogonalEdgeStyle;rounded=0;orthogonalLoop=1;jettySize=auto;html=1;exitX=0;exitY=0.5;exitDx=0;exitDy=0;exitPerimeter=0;entryX=1;entryY=0.5;entryDx=0;entryDy=0;" edge="1" parent="WIyWlLk6GJQsqaUBKTNV-1" source="F-60TwZCfAOCNFxz5m5Q-55" target="F-60TwZCfAOCNFxz5m5Q-62">
          <mxGeometry relative="1" as="geometry" />
        </mxCell>
        <mxCell id="F-60TwZCfAOCNFxz5m5Q-55" value="&lt;span style=&quot;font-size: 15px ; font-weight: 700 ; text-align: center ; background-color: rgba(255 , 255 , 255 , 0.01)&quot;&gt;&amp;nbsp; &amp;nbsp; &amp;nbsp; Annual&lt;/span&gt;&lt;div style=&quot;resize: none ; outline: 0px ; font-size: 15px ; font-weight: 700 ; text-align: center&quot;&gt;&amp;nbsp; &amp;nbsp; land cover&lt;/div&gt;&lt;div style=&quot;resize: none ; outline: 0px ; font-size: 15px ; font-weight: 700 ; text-align: center&quot;&gt;&amp;nbsp; &amp;nbsp; (33 maps)&lt;/div&gt;" style="strokeWidth=2;html=1;shape=mxgraph.flowchart.direct_data;whiteSpace=wrap;fontFamily=Times New Roman;fontSize=12;align=left;fillColor=#fff2cc;strokeColor=#d6b656;" vertex="1" parent="WIyWlLk6GJQsqaUBKTNV-1">
          <mxGeometry x="600" y="109" width="120" height="60" as="geometry" />
        </mxCell>
        <mxCell id="F-60TwZCfAOCNFxz5m5Q-65" value="" style="edgeStyle=orthogonalEdgeStyle;rounded=0;orthogonalLoop=1;jettySize=auto;html=1;" edge="1" parent="WIyWlLk6GJQsqaUBKTNV-1" source="F-60TwZCfAOCNFxz5m5Q-62" target="F-60TwZCfAOCNFxz5m5Q-64">
          <mxGeometry relative="1" as="geometry" />
        </mxCell>
        <mxCell id="F-60TwZCfAOCNFxz5m5Q-62" value="&lt;div style=&quot;resize: none ; outline: 0px ; font-size: 15px&quot;&gt;&lt;span style=&quot;background-color: rgba(255 , 255 , 255 , 0.01)&quot;&gt;Validation&lt;/span&gt;&lt;br&gt;&lt;div style=&quot;resize: none ; outline: 0px&quot;&gt;(Field survey and Google Earth)&lt;/div&gt;&lt;/div&gt;" style="rounded=1;whiteSpace=wrap;html=1;absoluteArcSize=1;arcSize=14;strokeWidth=2;fontFamily=Times New Roman;fontSize=12;fontStyle=1;fillColor=#dae8fc;strokeColor=#6c8ebf;" vertex="1" parent="WIyWlLk6GJQsqaUBKTNV-1">
          <mxGeometry x="435" y="109" width="120" height="60" as="geometry" />
        </mxCell>
        <mxCell id="F-60TwZCfAOCNFxz5m5Q-68" style="edgeStyle=orthogonalEdgeStyle;curved=1;rounded=0;orthogonalLoop=1;jettySize=auto;html=1;exitX=0;exitY=0.5;exitDx=0;exitDy=0;shadow=0;" edge="1" parent="WIyWlLk6GJQsqaUBKTNV-1" source="F-60TwZCfAOCNFxz5m5Q-64">
          <mxGeometry relative="1" as="geometry">
            <mxPoint x="130" y="170" as="targetPoint" />
            <Array as="points">
              <mxPoint x="272" y="129" />
              <mxPoint x="130" y="129" />
            </Array>
          </mxGeometry>
        </mxCell>
        <mxCell id="F-60TwZCfAOCNFxz5m5Q-64" value="&lt;div style=&quot;resize: none ; outline: 0px&quot;&gt;&lt;span style=&quot;font-size: 15px&quot;&gt;Land cover change analysis&lt;/span&gt;&lt;br&gt;&lt;/div&gt;" style="rounded=1;whiteSpace=wrap;html=1;absoluteArcSize=1;arcSize=14;strokeWidth=2;fontFamily=Times New Roman;fontSize=12;fontStyle=1;fillColor=#dae8fc;strokeColor=#6c8ebf;" vertex="1" parent="WIyWlLk6GJQsqaUBKTNV-1">
          <mxGeometry x="272" y="109" width="120" height="60" as="geometry" />
        </mxCell>
      </root>
    </mxGraphModel>
  </diagram>
</mxfile>
